<svg width="60" height="63" viewBox="0 0 60 63" fill="none" xmlns="http://www.w3.org/2000/svg">
<path d="M34.8842 33.7944C36.9176 35.6103 37.1164 38.8016 34.8306 40.2874C33.1543 41.377 31.3041 42.195 29.3475 42.7005C25.7867 43.6203 22.0331 43.4636 18.5613 42.2501C15.0896 41.0367 12.0557 38.821 9.84318 35.8832C7.63069 32.9455 6.33904 29.4176 6.13155 25.7458C5.92406 22.074 6.81006 18.423 8.6775 15.2548C10.5449 12.0865 13.31 9.54307 16.6229 7.94622C19.9358 6.34938 23.6479 5.77079 27.2896 6.28363C29.2908 6.56543 31.2213 7.16983 33.0097 8.06364C35.4483 9.28244 35.6103 12.4758 33.7944 14.5092C31.9785 16.5427 28.8022 16.5326 26.112 16.0902C26.0458 16.0793 25.9795 16.0692 25.913 16.0598C24.2047 15.8193 22.4635 16.0906 20.9096 16.8397C19.3556 17.5887 18.0586 18.7817 17.1827 20.2678C16.3067 21.754 15.8911 23.4665 15.9885 25.1888C16.0858 26.9111 16.6917 28.5659 17.7295 29.9439C18.7672 31.3219 20.1904 32.3612 21.8188 32.9304C23.4473 33.4996 25.208 33.5731 26.8782 33.1416C26.9433 33.1248 27.0081 33.1073 27.0726 33.089C29.6958 32.3464 32.8507 31.9785 34.8842 33.7944Z" fill="#FF5512"/>
<path d="M24.9263 27.095C23.0265 25.1397 23.0541 21.9423 25.4393 20.6221C27.1886 19.6539 29.092 18.9688 31.0795 18.6031C34.6965 17.9376 38.4296 18.3596 41.8067 19.8158C45.1838 21.2719 48.0533 23.6968 50.0524 26.7838C52.0514 29.8708 53.0901 33.4812 53.0371 37.1585C52.9842 40.8358 51.842 44.4149 49.755 47.443C47.668 50.4712 44.7299 52.8125 41.3123 54.1709C37.8946 55.5292 34.1509 55.8436 30.5546 55.0743C28.5784 54.6516 26.6955 53.912 24.9749 52.8939C22.6286 51.5055 22.693 48.3087 24.6483 46.4089C26.6036 44.5091 29.7713 44.744 32.4233 45.3757C32.4886 45.3912 32.5541 45.406 32.6198 45.4201C34.3067 45.7809 36.0627 45.6335 37.6658 44.9963C39.2689 44.3592 40.6471 43.2609 41.626 41.8405C42.6049 40.4201 43.1407 38.7413 43.1655 37.0164C43.1904 35.2915 42.7031 33.598 41.7655 32.15C40.8278 30.702 39.4818 29.5646 37.8977 28.8816C36.3136 28.1986 34.5626 28.0006 32.866 28.3128C32.7999 28.3249 32.734 28.3379 32.6684 28.3515C29.9992 28.9066 26.8261 29.0502 24.9263 27.095Z" fill="#FF5512"/>
</svg>
