<svg width="1052" height="1050" viewBox="0 0 1052 1050" fill="none" xmlns="http://www.w3.org/2000/svg">
<path d="M6.10352e-05 0.656891H1048.04M6.10352e-05 48.2948H1048.04M6.10352e-05 95.9328H1048.04M6.10352e-05 143.571H1048.04M6.10352e-05 191.209H1048.04M6.10352e-05 238.847H1048.04M6.10352e-05 286.485H1048.04M6.10352e-05 334.123H1048.04M6.10352e-05 381.761H1048.04M6.10352e-05 429.399H1048.04M6.10352e-05 477.036H1048.04M6.10352e-05 524.674H1048.04M6.10352e-05 572.312H1048.04M6.10352e-05 619.95H1048.04M6.10352e-05 667.588H1048.04M6.10352e-05 715.226H1048.04M6.10352e-05 762.864H1048.04M6.10352e-05 810.502H1048.04M6.10352e-05 858.14H1048.04M6.10352e-05 905.778H1048.04M6.10352e-05 953.416H1048.04M6.10352e-05 1001.05H1048.04M6.10352e-05 1048.69H1048.04M0.65696 1.31379L0.656889 1049.35M48.3916 1.31379L48.3916 1049.35M96.1267 1.31379L96.1267 1049.35M143.861 1.31379L143.861 1049.35M191.596 1.31379L191.596 1049.35M239.331 1.31379L239.331 1049.35M287.065 1.31379L287.065 1049.35M334.8 1.31379L334.8 1049.35M382.535 1.31379L382.535 1049.35M430.27 1.31379L430.27 1049.35M478.004 1.31379L478.004 1049.35M525.739 1.31379L525.739 1049.35M573.474 1.31379L573.474 1049.35M621.208 1.31379L621.208 1049.35M668.943 1.31379L668.943 1049.35M716.678 1.31379L716.678 1049.35M764.413 1.31379L764.413 1049.35M812.148 1.31379L812.147 1049.35M859.882 1.31379L859.882 1049.35M907.617 1.31379V1049.35M955.352 1.31379V1049.35M1003.09 1.31379V1049.35M1050.82 1.31379V1049.35" stroke="url(#paint0_radial_52_970)" stroke-opacity="0.7" stroke-width="1.3138"/>
<defs>
<radialGradient id="paint0_radial_52_970" cx="0" cy="0" r="1" gradientUnits="userSpaceOnUse" gradientTransform="translate(525.411 525.003) rotate(90) scale(524.346 525.411)">
<stop stop-color="#FF8904"/>
<stop offset="1"/>
</radialGradient>
</defs>
</svg>
